<svg width="401" height="217" viewBox="0 0 401 217" fill="none" xmlns="http://www.w3.org/2000/svg">
<path fill-rule="evenodd" clip-rule="evenodd" d="M0.226074 145.813H25.2261L25.2481 119.063C25.2671 95.2752 25.4731 91.8662 27.1061 88.2722C28.1151 86.0492 30.3691 83.0292 32.1131 81.5612C33.8581 80.0942 36.8901 78.5913 38.8521 78.2233C40.8141 77.8553 44.1021 78.0592 46.1601 78.6752C48.2171 79.2912 50.6911 80.6703 51.6581 81.7383C52.6251 82.8073 54.0291 85.3982 54.7771 87.4972C55.7941 90.3482 56.1491 98.2072 56.1821 118.563L56.2261 145.813H82.2261V119.949C82.2261 105.725 81.7751 91.6622 81.2241 88.6992C80.6741 85.7372 78.7891 80.4662 77.0361 76.9862C75.1511 73.2452 71.8581 68.8702 68.9801 66.2812C66.3021 63.8742 61.5491 60.6672 58.4181 59.1572C53.3511 56.7112 51.5741 56.4043 42.2261 56.3613C36.4511 56.3353 30.2711 56.6382 28.4931 57.0352L25.2601 57.7562L24.7261 6.31325L0.226074 5.75125V145.813ZM375.226 145.813H400.226V6.81325H375.226V145.813ZM119.507 56.7253C117.737 57.1783 113.863 58.7342 110.898 60.1852C107.933 61.6362 103.243 65.2163 100.477 68.1413C97.7101 71.0663 94.5391 75.2402 93.4281 77.4162C92.3181 79.5932 90.6401 84.0193 89.7001 87.2533C88.3821 91.7882 88.0861 95.7893 88.4051 104.739C88.7811 115.281 89.1171 116.985 92.0761 123.329C93.8681 127.17 97.2221 132.252 99.5301 134.622C101.838 136.992 106.046 140.263 108.882 141.891C111.717 143.52 116.217 145.552 118.882 146.407C121.546 147.262 129.156 148.211 135.792 148.515C144.968 148.936 149.877 148.661 156.292 147.368C160.931 146.432 166.69 144.802 169.09 143.746C173.436 141.833 173.452 141.806 172.88 137.569C172.564 135.228 172.011 130.725 171.651 127.563C171.29 124.401 170.607 121.813 170.132 121.813C169.657 121.813 165.771 123.01 161.497 124.473C155.24 126.615 151.777 127.151 143.726 127.223C137.716 127.277 131.744 126.738 128.759 125.872C125.475 124.92 122.396 123.036 119.673 120.313C117.408 118.048 115.054 114.758 114.442 113.004L113.33 109.813H174.226L174.414 105.063C174.517 102.451 174.485 97.8382 174.342 94.8132C174.199 91.7882 173.482 86.9502 172.749 84.0632C172.016 81.1752 170.203 76.7442 168.722 74.2152C167.24 71.6872 164.314 67.9562 162.221 65.9242C160.127 63.8922 155.784 60.9273 152.57 59.3353C147.246 56.6983 145.659 56.4172 134.726 56.1722C128.126 56.0242 121.278 56.2733 119.507 56.7253ZM213.155 57.1222C210.641 57.8322 206.591 59.5823 204.155 61.0123C201.719 62.4423 197.789 65.5692 195.422 67.9622C193.054 70.3552 189.62 75.3052 187.789 78.9622C185.509 83.5182 184.082 88.2832 183.257 94.0942C182.328 100.64 182.321 104.372 183.229 110.444C183.881 114.812 185.669 120.982 187.248 124.313C188.812 127.613 192.19 132.411 194.755 134.975C197.32 137.539 201.962 140.975 205.072 142.611C208.182 144.247 213.68 146.312 217.29 147.199C221.162 148.151 228.048 148.813 234.082 148.813C239.708 148.813 247.779 148.102 252.018 147.234C256.257 146.366 261.695 144.791 264.101 143.735C268.146 141.96 268.431 141.59 267.882 138.843C267.555 137.209 266.985 132.921 266.616 129.314C266.246 125.708 265.589 122.537 265.154 122.269C264.72 122 261.071 122.885 257.045 124.235C253.02 125.585 246.278 127.001 242.064 127.381C237.182 127.822 231.979 127.615 227.72 126.812C223.081 125.936 219.77 124.584 216.888 122.386C214.605 120.644 211.73 117.441 210.498 115.266C209.267 113.092 208.251 110.975 208.242 110.563C208.233 110.151 222.005 109.813 238.847 109.813H269.467L268.989 97.5632C268.611 87.8782 268.023 84.0832 266.183 79.4402C264.825 76.0162 261.78 71.2982 258.878 68.1232C255.931 64.8982 251.421 61.4092 247.814 59.5652C242.158 56.6722 240.875 56.4293 229.726 56.1423C222.035 55.9433 216.085 56.2962 213.155 57.1222ZM279.241 82.5632C279.252 102.754 279.622 110.867 280.749 115.65C281.571 119.135 283.379 123.924 284.767 126.293C286.156 128.662 289.467 132.636 292.126 135.123C294.785 137.61 299.254 140.807 302.057 142.227C304.86 143.648 310.207 145.243 313.94 145.772C318 146.347 323.136 146.384 326.726 145.862C330.026 145.383 333.55 144.664 334.557 144.264C336.3 143.572 336.373 144.438 336.057 162.104C335.754 179.086 335.547 180.913 333.634 183.493C332.483 185.044 330.054 187.326 328.236 188.563C326.418 189.801 323.647 190.813 322.078 190.813H319.226V216.076L326.476 215.601C331.7 215.258 335.218 214.366 339.066 212.407C342.003 210.911 346.371 207.877 348.772 205.664C351.173 203.451 354.341 199.586 355.812 197.076C357.283 194.566 359.097 190.218 359.844 187.413C360.92 183.375 361.205 169.146 361.214 119.063L361.226 55.8132H336.226L336.202 81.0632C336.189 94.9512 335.769 108.078 335.269 110.236C334.768 112.393 333.5 115.318 332.45 116.736C331.401 118.153 329.008 120.366 327.134 121.652C324.34 123.569 322.778 123.915 318.468 123.569C314.696 123.266 312.47 122.464 310.589 120.73C309.148 119.401 307.351 116.865 306.597 115.095C305.545 112.625 305.226 105.36 305.226 83.8452V55.8132H279.226L279.241 82.5632ZM136.726 75.9323C138.926 76.5413 141.908 77.8802 143.353 78.9072C144.797 79.9342 146.66 82.2453 147.491 84.0433C148.323 85.8423 149.309 88.3262 149.682 89.5632L150.361 91.8132H113.091L113.785 89.5632C114.167 88.3262 115.055 86.1882 115.758 84.8132C116.461 83.4382 118.156 81.2673 119.524 79.9893C120.893 78.7113 123.973 77.0532 126.369 76.3062C128.765 75.5582 131.176 74.9192 131.726 74.8852C132.276 74.8522 134.526 75.3233 136.726 75.9323ZM231.676 75.9053C234.262 76.5563 237.295 78.3213 239.193 80.2793C240.944 82.0853 242.975 85.3062 243.709 87.4382L245.042 91.3132L226.99 91.5863C217.062 91.7363 208.708 91.6282 208.426 91.3462C208.144 91.0642 208.737 89.0072 209.744 86.7742C210.75 84.5412 213.079 81.3932 214.918 79.7782C216.758 78.1632 219.492 76.5712 220.994 76.2402C222.497 75.9092 224.176 75.4882 224.726 75.3042C225.276 75.1212 226.089 74.9353 226.533 74.8923C226.977 74.8493 229.291 75.3043 231.676 75.9053Z" fill="#003355"/>
<path d="M294.38 7.20026C297.081 5.21726 301.414 2.74226 304.008 1.70026C307.888 0.141256 310.857 -0.149743 320.726 0.0602565C332.537 0.312257 332.831 0.375257 339.393 4.06726C343.061 6.13126 347.893 9.90026 350.133 12.4453C352.373 14.9893 355.386 19.4853 356.83 22.4363C358.489 25.8283 359.648 30.1963 359.978 34.3083L360.5 40.8133H347.863C337.151 40.8133 335.226 40.5783 335.226 39.2733C335.226 38.4263 334.336 35.9893 333.249 33.8573C332.161 31.7263 329.949 29.0403 328.333 27.8893C326.717 26.7383 324.022 25.5223 322.346 25.1873C320.669 24.8523 317.765 24.8643 315.894 25.2163C313.989 25.5733 310.906 27.3923 308.893 29.3483C306.848 31.3343 304.832 34.5623 304.222 36.8273L303.149 40.8133H277.948L278.487 34.8723C278.783 31.6043 280.168 26.4353 281.564 23.3863C282.96 20.3373 285.31 16.2593 286.786 14.3233C288.262 12.3883 291.68 9.18226 294.38 7.20026Z" fill="#3E8FC0"/>
<path d="M3.594 179.133C1.577 175.011 0.655 171.408 0.383 166.582L0 159.813H12.613C24.757 159.813 25.226 159.891 25.226 161.912C25.226 163.066 25.971 165.581 26.882 167.501C27.793 169.421 30.235 172.114 32.307 173.486C34.969 175.247 37.443 175.98 40.727 175.98C44.138 175.98 46.405 175.268 49.228 173.311C51.346 171.844 53.787 169.151 54.652 167.327C55.518 165.503 56.226 163.066 56.226 161.912C56.226 159.888 56.689 159.813 69.226 159.813H82.226V162.603C82.226 164.137 81.528 168.075 80.674 171.353C79.82 174.631 77.953 179.307 76.525 181.745C75.097 184.182 71.858 188.193 69.327 190.658C66.797 193.123 61.801 196.529 58.226 198.226C52.187 201.094 50.946 201.313 40.726 201.313C30.491 201.313 29.269 201.097 23.164 198.204C19.357 196.4 14.466 192.958 11.513 190.004C8.713 187.205 5.15 182.313 3.594 179.133Z" fill="#14B68E"/>
</svg>
